# MagicaVoxel @ Ephtracy

# group
o 

# material
mtllib peace_of_body.mtl
usemtl palette

# normals
vn -1 0 0
vn 1 0 0
vn 0 0 1
vn 0 0 -1
vn 0 -1 0
vn 0 1 0

# texcoords
vt 0.970703 0.5
vt 0.974609 0.5
vt 0.978516 0.5

# verts
v -0.3 0 0
v -0.3 0 -0.2
v -0.3 0.1 0.2
v -0.3 0.1 0
v -0.3 0.1 -0.2
v -0.3 0.1 -0.3
v -0.3 0.2 0.1
v -0.3 0.2 -0.2
v -0.3 0.2 -0.3
v -0.3 0.2 -0.4
v -0.3 0.3 -0.2
v -0.3 0.3 -0.3
v -0.3 0.4 0.2
v -0.3 0.4 0.1
v -0.3 0.4 0
v -0.3 0.4 -0.2
v -0.3 0.4 -0.3
v -0.3 0.4 -0.4
v -0.3 0.5 0
v -0.3 0.5 -0.2
v -0.3 0.5 -0.3
v -0.2 0 0.2
v -0.2 0 0
v -0.2 0 -0.2
v -0.2 0 -0.3
v -0.2 0.1 0.3
v -0.2 0.1 0.2
v -0.2 0.1 0
v -0.2 0.1 -0.2
v -0.2 0.1 -0.3
v -0.2 0.1 -0.4
v -0.2 0.2 -0.3
v -0.2 0.2 -0.4
v -0.2 0.2 -0.5
v -0.2 0.4 0.3
v -0.2 0.4 0.2
v -0.2 0.4 0.1
v -0.2 0.4 0
v -0.2 0.4 -0.3
v -0.2 0.4 -0.4
v -0.2 0.4 -0.5
v -0.2 0.5 0.2
v -0.2 0.5 0
v -0.2 0.5 -0.2
v -0.2 0.5 -0.3
v -0.2 0.5 -0.4
v -0.2 0.6 0
v -0.2 0.6 -0.2
v -0.1 0 0.3
v -0.1 0 0.2
v -0.1 0 -0.3
v -0.1 0 -0.4
v -0.1 0.1 0.3
v -0.1 0.1 0.2
v -0.1 0.1 -0.3
v -0.1 0.1 -0.4
v -0.1 0.1 -0.5
v -0.1 0.2 -0.4
v -0.1 0.2 -0.5
v -0.1 0.4 0.3
v -0.1 0.4 0.2
v -0.1 0.5 0.3
v -0.1 0.5 0.2
v -0.1 0.5 0.1
v -0.1 0.5 0
v -0.1 0.5 -0.2
v -0.1 0.5 -0.3
v -0.1 0.6 0.1
v -0.1 0.6 0
v -0.1 0.6 -0.2
v -0.1 0.6 -0.3
v 0 0.4 -0.4
v 0 0.4 -0.5
v 0 0.5 0.2
v 0 0.5 0.1
v 0 0.5 -0.4
v 0 0.5 -0.5
v 0 0.6 0.2
v 0 0.6 0.1
v 0.1 0.4 -0.4
v 0.1 0.4 -0.5
v 0.1 0.5 0.2
v 0.1 0.5 0.1
v 0.1 0.5 -0.4
v 0.1 0.5 -0.5
v 0.1 0.6 0.2
v 0.1 0.6 0.1
v 0.2 0 0.3
v 0.2 0 0.2
v 0.2 0 -0.3
v 0.2 0 -0.4
v 0.2 0.1 0.3
v 0.2 0.1 0.2
v 0.2 0.1 -0.3
v 0.2 0.1 -0.4
v 0.2 0.1 -0.5
v 0.2 0.2 -0.4
v 0.2 0.2 -0.5
v 0.2 0.4 0.3
v 0.2 0.4 0.2
v 0.2 0.5 0.3
v 0.2 0.5 0.2
v 0.2 0.5 0.1
v 0.2 0.5 0
v 0.2 0.5 -0.2
v 0.2 0.5 -0.3
v 0.2 0.6 0.1
v 0.2 0.6 0
v 0.2 0.6 -0.2
v 0.2 0.6 -0.3
v 0.3 0 0.2
v 0.3 0 0
v 0.3 0 -0.2
v 0.3 0 -0.3
v 0.3 0.1 0.3
v 0.3 0.1 0.2
v 0.3 0.1 0
v 0.3 0.1 -0.2
v 0.3 0.1 -0.3
v 0.3 0.1 -0.4
v 0.3 0.2 -0.3
v 0.3 0.2 -0.4
v 0.3 0.2 -0.5
v 0.3 0.3 0.3
v 0.3 0.3 0.2
v 0.3 0.4 0.3
v 0.3 0.4 0.2
v 0.3 0.4 0.1
v 0.3 0.4 0
v 0.3 0.4 -0.3
v 0.3 0.4 -0.4
v 0.3 0.4 -0.5
v 0.3 0.5 0.2
v 0.3 0.5 0.1
v 0.3 0.5 0
v 0.3 0.5 -0.2
v 0.3 0.5 -0.3
v 0.3 0.5 -0.4
v 0.3 0.6 0
v 0.3 0.6 -0.2
v 0.4 0 0
v 0.4 0 -0.2
v 0.4 0.1 0.2
v 0.4 0.1 0
v 0.4 0.1 -0.2
v 0.4 0.1 -0.3
v 0.4 0.2 0
v 0.4 0.2 -0.2
v 0.4 0.2 -0.3
v 0.4 0.2 -0.4
v 0.4 0.3 0.1
v 0.4 0.3 0
v 0.4 0.3 -0.1
v 0.4 0.3 -0.3
v 0.4 0.4 0.2
v 0.4 0.4 0.1
v 0.4 0.4 0
v 0.4 0.4 -0.1
v 0.4 0.4 -0.3
v 0.4 0.4 -0.4
v 0.4 0.5 0
v 0.4 0.5 -0.3
v -0.2 0.1 0.3
v -0.2 0.4 0.3
v -0.1 0 0.3
v -0.1 0.1 0.3
v -0.1 0.4 0.3
v -0.1 0.5 0.3
v 0.1 0.4 0.3
v 0.1 0.5 0.3
v 0.2 0 0.3
v 0.2 0.1 0.3
v 0.2 0.3 0.3
v 0.2 0.4 0.3
v 0.2 0.5 0.3
v 0.3 0.1 0.3
v 0.3 0.3 0.3
v 0.3 0.4 0.3
v -0.3 0.1 0.2
v -0.3 0.4 0.2
v -0.2 0 0.2
v -0.2 0.1 0.2
v -0.2 0.4 0.2
v -0.2 0.5 0.2
v -0.1 0 0.2
v -0.1 0.1 0.2
v -0.1 0.4 0.2
v -0.1 0.5 0.2
v 0 0.5 0.2
v 0 0.6 0.2
v 0.1 0.5 0.2
v 0.1 0.6 0.2
v 0.2 0 0.2
v 0.2 0.1 0.2
v 0.2 0.4 0.2
v 0.2 0.5 0.2
v 0.3 0 0.2
v 0.3 0.1 0.2
v 0.3 0.3 0.2
v 0.3 0.4 0.2
v 0.3 0.5 0.2
v 0.4 0.1 0.2
v 0.4 0.4 0.2
v -0.1 0.5 0.1
v -0.1 0.6 0.1
v 0 0.5 0.1
v 0 0.6 0.1
v 0.1 0.5 0.1
v 0.1 0.6 0.1
v 0.2 0.5 0.1
v 0.2 0.6 0.1
v -0.3 0 0
v -0.3 0.1 0
v -0.3 0.4 0
v -0.3 0.5 0
v -0.2 0 0
v -0.2 0.1 0
v -0.2 0.4 0
v -0.2 0.5 0
v -0.2 0.6 0
v -0.1 0.5 0
v -0.1 0.6 0
v 0.2 0.5 0
v 0.2 0.6 0
v 0.3 0 0
v 0.3 0.1 0
v 0.3 0.4 0
v 0.3 0.5 0
v 0.3 0.6 0
v 0.4 0 0
v 0.4 0.1 0
v 0.4 0.4 0
v 0.4 0.5 0
v -0.3 0 -0.2
v -0.3 0.1 -0.2
v -0.2 0 -0.2
v -0.2 0.1 -0.2
v -0.2 0.5 -0.2
v -0.2 0.6 -0.2
v -0.1 0.5 -0.2
v -0.1 0.6 -0.2
v 0.2 0.5 -0.2
v 0.2 0.6 -0.2
v 0.3 0 -0.2
v 0.3 0.1 -0.2
v 0.3 0.5 -0.2
v 0.3 0.6 -0.2
v 0.4 0 -0.2
v 0.4 0.1 -0.2
v -0.3 0.1 -0.3
v -0.3 0.2 -0.3
v -0.3 0.4 -0.3
v -0.3 0.5 -0.3
v -0.2 0 -0.3
v -0.2 0.1 -0.3
v -0.2 0.2 -0.3
v -0.2 0.4 -0.3
v -0.2 0.5 -0.3
v -0.1 0 -0.3
v -0.1 0.1 -0.3
v -0.1 0.5 -0.3
v -0.1 0.6 -0.3
v 0.1 0.5 -0.3
v 0.1 0.6 -0.3
v 0.2 0 -0.3
v 0.2 0.1 -0.3
v 0.2 0.5 -0.3
v 0.2 0.6 -0.3
v 0.3 0 -0.3
v 0.3 0.1 -0.3
v 0.3 0.2 -0.3
v 0.3 0.4 -0.3
v 0.3 0.5 -0.3
v 0.4 0.1 -0.3
v 0.4 0.2 -0.3
v 0.4 0.4 -0.3
v 0.4 0.5 -0.3
v -0.3 0.2 -0.4
v -0.3 0.4 -0.4
v -0.2 0.1 -0.4
v -0.2 0.2 -0.4
v -0.2 0.4 -0.4
v -0.2 0.5 -0.4
v -0.1 0 -0.4
v -0.1 0.1 -0.4
v -0.1 0.2 -0.4
v 0 0.4 -0.4
v 0 0.5 -0.4
v 0.1 0.4 -0.4
v 0.1 0.5 -0.4
v 0.2 0 -0.4
v 0.2 0.1 -0.4
v 0.2 0.2 -0.4
v 0.3 0.1 -0.4
v 0.3 0.2 -0.4
v 0.3 0.4 -0.4
v 0.3 0.5 -0.4
v 0.4 0.2 -0.4
v 0.4 0.4 -0.4
v -0.2 0.2 -0.5
v -0.2 0.4 -0.5
v -0.1 0.1 -0.5
v -0.1 0.2 -0.5
v 0 0.4 -0.5
v 0 0.5 -0.5
v 0.1 0.4 -0.5
v 0.1 0.5 -0.5
v 0.2 0.1 -0.5
v 0.2 0.2 -0.5
v 0.3 0.2 -0.5
v 0.3 0.4 -0.5
v -0.1 0 0.3
v 0.2 0 0.3
v -0.2 0 0.2
v -0.1 0 0.2
v 0.2 0 0.2
v 0.3 0 0.2
v -0.3 0 0
v -0.2 0 0
v -0.1 0 0
v 0.2 0 0
v 0.3 0 0
v 0.4 0 0
v -0.3 0 -0.2
v -0.2 0 -0.2
v -0.1 0 -0.2
v 0.2 0 -0.2
v 0.3 0 -0.2
v 0.4 0 -0.2
v -0.2 0 -0.3
v -0.1 0 -0.3
v 0.2 0 -0.3
v 0.3 0 -0.3
v -0.1 0 -0.4
v 0.2 0 -0.4
v -0.2 0.1 0.3
v -0.1 0.1 0.3
v 0.2 0.1 0.3
v 0.3 0.1 0.3
v -0.3 0.1 0.2
v -0.2 0.1 0.2
v -0.1 0.1 0.2
v 0.2 0.1 0.2
v 0.3 0.1 0.2
v 0.4 0.1 0.2
v -0.3 0.1 0
v -0.2 0.1 0
v 0.3 0.1 0
v 0.4 0.1 0
v -0.3 0.1 -0.2
v -0.2 0.1 -0.2
v 0.3 0.1 -0.2
v 0.4 0.1 -0.2
v -0.3 0.1 -0.3
v -0.2 0.1 -0.3
v -0.1 0.1 -0.3
v 0.2 0.1 -0.3
v 0.3 0.1 -0.3
v 0.4 0.1 -0.3
v -0.2 0.1 -0.4
v -0.1 0.1 -0.4
v 0.2 0.1 -0.4
v 0.3 0.1 -0.4
v -0.1 0.1 -0.5
v 0.2 0.1 -0.5
v -0.3 0.2 -0.3
v -0.2 0.2 -0.3
v 0.3 0.2 -0.3
v 0.4 0.2 -0.3
v -0.3 0.2 -0.4
v -0.2 0.2 -0.4
v -0.1 0.2 -0.4
v 0.2 0.2 -0.4
v 0.3 0.2 -0.4
v 0.4 0.2 -0.4
v -0.2 0.2 -0.5
v -0.1 0.2 -0.5
v 0.2 0.2 -0.5
v 0.3 0.2 -0.5
v -0.2 0.4 0.3
v -0.1 0.4 0.3
v 0.2 0.4 0.3
v 0.3 0.4 0.3
v -0.3 0.4 0.2
v -0.2 0.4 0.2
v -0.1 0.4 0.2
v 0.2 0.4 0.2
v 0.3 0.4 0.2
v 0.4 0.4 0.2
v -0.3 0.4 0.1
v -0.2 0.4 0.1
v 0.3 0.4 0.1
v 0.4 0.4 0.1
v -0.3 0.4 0
v -0.2 0.4 0
v 0.3 0.4 0
v 0.4 0.4 0
v -0.3 0.4 -0.3
v -0.2 0.4 -0.3
v 0.3 0.4 -0.3
v 0.4 0.4 -0.3
v -0.3 0.4 -0.4
v -0.2 0.4 -0.4
v 0 0.4 -0.4
v 0.1 0.4 -0.4
v 0.3 0.4 -0.4
v 0.4 0.4 -0.4
v -0.2 0.4 -0.5
v 0 0.4 -0.5
v 0.1 0.4 -0.5
v 0.3 0.4 -0.5
v -0.1 0.5 0.3
v 0.1 0.5 0.3
v 0.2 0.5 0.3
v -0.2 0.5 0.2
v -0.1 0.5 0.2
v 0 0.5 0.2
v 0.1 0.5 0.2
v 0.2 0.5 0.2
v 0.3 0.5 0.2
v -0.1 0.5 0.1
v 0 0.5 0.1
v 0.1 0.5 0.1
v 0.2 0.5 0.1
v 0.3 0.5 0.1
v -0.3 0.5 0
v -0.2 0.5 0
v -0.1 0.5 0
v 0.2 0.5 0
v 0.3 0.5 0
v 0.4 0.5 0
v -0.3 0.5 -0.2
v -0.2 0.5 -0.2
v -0.1 0.5 -0.2
v 0.2 0.5 -0.2
v 0.3 0.5 -0.2
v -0.3 0.5 -0.3
v -0.2 0.5 -0.3
v -0.1 0.5 -0.3
v 0.1 0.5 -0.3
v 0.2 0.5 -0.3
v 0.3 0.5 -0.3
v 0.4 0.5 -0.3
v -0.2 0.5 -0.4
v 0 0.5 -0.4
v 0.1 0.5 -0.4
v 0.3 0.5 -0.4
v 0 0.5 -0.5
v 0.1 0.5 -0.5
v 0 0.6 0.2
v 0.1 0.6 0.2
v -0.1 0.6 0.1
v 0 0.6 0.1
v 0.1 0.6 0.1
v 0.2 0.6 0.1
v -0.2 0.6 0
v -0.1 0.6 0
v 0.1 0.6 0
v 0.2 0.6 0
v 0.3 0.6 0
v 0.1 0.6 -0.1
v 0.2 0.6 -0.1
v -0.2 0.6 -0.2
v -0.1 0.6 -0.2
v 0.1 0.6 -0.2
v 0.2 0.6 -0.2
v 0.3 0.6 -0.2
v -0.1 0.6 -0.3
v 0.1 0.6 -0.3
v 0.2 0.6 -0.3

# faces
f 4/2/1 2/2/1 1/2/1
f 5/2/1 2/2/1 4/2/1
f 7/2/1 4/2/1 3/2/1
f 7/2/1 6/2/1 5/2/1
f 7/2/1 5/2/1 4/2/1
f 8/2/1 6/2/1 7/2/1
f 9/2/1 6/2/1 8/2/1
f 11/3/1 8/3/1 7/3/1
f 11/2/1 10/2/1 9/2/1
f 11/2/1 9/2/1 8/2/1
f 12/2/1 10/2/1 11/2/1
f 13/2/1 7/2/1 3/2/1
f 14/3/1 11/3/1 7/3/1
f 14/2/1 7/2/1 13/2/1
f 14/3/1 12/3/1 11/3/1
f 15/3/1 12/3/1 14/3/1
f 16/3/1 12/3/1 15/3/1
f 17/2/1 10/2/1 12/2/1
f 17/3/1 12/3/1 16/3/1
f 18/2/1 10/2/1 17/2/1
f 19/2/1 16/2/1 15/2/1
f 20/3/1 17/3/1 16/3/1
f 20/2/1 16/2/1 19/2/1
f 21/3/1 17/3/1 20/3/1
f 27/2/1 23/2/1 22/2/1
f 28/2/1 23/2/1 27/2/1
f 29/2/1 25/2/1 24/2/1
f 30/2/1 25/2/1 29/2/1
f 32/2/1 31/2/1 30/2/1
f 33/2/1 31/2/1 32/2/1
f 35/2/1 27/2/1 26/2/1
f 36/2/1 27/2/1 35/2/1
f 40/2/1 34/2/1 33/2/1
f 41/2/1 34/2/1 40/2/1
f 42/2/1 38/2/1 37/2/1
f 42/2/1 37/2/1 36/2/1
f 43/2/1 38/2/1 42/2/1
f 45/2/1 40/2/1 39/2/1
f 46/2/1 40/2/1 45/2/1
f 47/2/1 44/2/1 43/2/1
f 48/2/1 44/2/1 47/2/1
f 53/1/1 50/1/1 49/1/1
f 54/1/1 50/1/1 53/1/1
f 55/1/1 52/1/1 51/1/1
f 56/1/1 52/1/1 55/1/1
f 58/2/1 57/2/1 56/2/1
f 59/2/1 57/2/1 58/2/1
f 62/2/1 61/2/1 60/2/1
f 63/2/1 61/2/1 62/2/1
f 68/2/1 65/2/1 64/2/1
f 69/2/1 65/2/1 68/2/1
f 70/2/1 67/2/1 66/2/1
f 71/2/1 67/2/1 70/2/1
f 76/2/1 73/2/1 72/2/1
f 77/2/1 73/2/1 76/2/1
f 78/2/1 75/2/1 74/2/1
f 79/2/1 75/2/1 78/2/1
f 80/2/2 81/2/2 84/2/2
f 84/2/2 81/2/2 85/2/2
f 82/2/2 83/2/2 86/2/2
f 86/2/2 83/2/2 87/2/2
f 88/1/2 89/1/2 92/1/2
f 92/1/2 89/1/2 93/1/2
f 90/1/2 91/1/2 94/1/2
f 94/1/2 91/1/2 95/1/2
f 95/2/2 96/2/2 97/2/2
f 97/2/2 96/2/2 98/2/2
f 99/3/2 100/3/2 101/3/2
f 101/3/2 100/3/2 102/3/2
f 103/2/2 104/2/2 107/2/2
f 107/2/2 104/2/2 108/2/2
f 105/3/2 106/3/2 109/3/2
f 109/3/2 106/3/2 110/3/2
f 111/2/2 112/2/2 116/2/2
f 116/2/2 112/2/2 117/2/2
f 113/2/2 114/2/2 118/2/2
f 118/2/2 114/2/2 119/2/2
f 119/2/2 120/2/2 121/2/2
f 121/2/2 120/2/2 122/2/2
f 115/2/2 116/2/2 124/2/2
f 124/2/2 116/2/2 125/2/2
f 124/3/2 125/3/2 126/3/2
f 126/3/2 125/3/2 127/3/2
f 122/2/2 123/2/2 131/2/2
f 131/2/2 123/2/2 132/2/2
f 127/3/2 128/3/2 133/3/2
f 128/2/2 129/2/2 134/2/2
f 133/3/2 128/3/2 134/3/2
f 134/2/2 129/2/2 135/2/2
f 130/2/2 131/2/2 137/2/2
f 137/2/2 131/2/2 138/2/2
f 135/2/2 136/2/2 139/2/2
f 139/2/2 136/2/2 140/2/2
f 141/2/2 142/2/2 144/2/2
f 144/2/2 142/2/2 145/2/2
f 143/2/2 144/2/2 147/2/2
f 144/2/2 145/2/2 147/2/2
f 145/3/2 146/3/2 148/3/2
f 147/2/2 145/2/2 148/2/2
f 148/3/2 146/3/2 149/3/2
f 143/2/2 147/2/2 151/2/2
f 147/3/2 148/3/2 152/3/2
f 151/2/2 147/2/2 152/2/2
f 148/3/2 149/3/2 152/3/2
f 152/3/2 149/3/2 153/3/2
f 149/2/2 150/2/2 154/2/2
f 153/3/2 149/3/2 154/3/2
f 143/2/2 151/2/2 155/2/2
f 152/3/2 153/3/2 156/3/2
f 155/2/2 151/2/2 156/2/2
f 151/3/2 152/3/2 156/3/2
f 156/3/2 153/3/2 157/3/2
f 153/2/2 154/2/2 158/2/2
f 157/3/2 153/3/2 158/3/2
f 154/2/2 150/2/2 159/2/2
f 158/2/2 154/2/2 159/2/2
f 159/2/2 150/2/2 160/2/2
f 157/2/2 158/2/2 161/2/2
f 158/2/2 159/2/2 161/2/2
f 161/2/2 159/2/2 162/2/2
f 166/2/3 164/2/3 163/2/3
f 167/2/3 164/2/3 166/2/3
f 169/2/3 167/2/3 166/2/3
f 169/2/3 168/2/3 167/2/3
f 170/2/3 168/2/3 169/2/3
f 171/1/3 166/1/3 165/1/3
f 172/2/3 169/2/3 166/2/3
f 172/1/3 166/1/3 171/1/3
f 173/2/3 169/2/3 172/2/3
f 174/3/3 170/3/3 169/3/3
f 174/2/3 169/2/3 173/2/3
f 175/3/3 170/3/3 174/3/3
f 176/2/3 173/2/3 172/2/3
f 177/3/3 174/3/3 173/3/3
f 177/2/3 173/2/3 176/2/3
f 178/3/3 174/3/3 177/3/3
f 182/2/3 180/2/3 179/2/3
f 183/2/3 180/2/3 182/2/3
f 185/2/3 182/2/3 181/2/3
f 186/2/3 182/2/3 185/2/3
f 187/2/3 184/2/3 183/2/3
f 188/2/3 184/2/3 187/2/3
f 191/2/3 190/2/3 189/2/3
f 192/2/3 190/2/3 191/2/3
f 197/2/3 194/2/3 193/2/3
f 198/2/3 194/2/3 197/2/3
f 200/3/3 196/3/3 195/3/3
f 201/3/3 196/3/3 200/3/3
f 202/2/3 199/2/3 198/2/3
f 202/2/3 200/2/3 199/2/3
f 203/2/3 200/2/3 202/2/3
f 206/2/3 205/2/3 204/2/3
f 207/2/3 205/2/3 206/2/3
f 210/2/3 209/2/3 208/2/3
f 211/2/3 209/2/3 210/2/3
f 216/2/3 213/2/3 212/2/3
f 217/2/3 213/2/3 216/2/3
f 218/2/3 215/2/3 214/2/3
f 219/2/3 215/2/3 218/2/3
f 221/2/3 220/2/3 219/2/3
f 222/2/3 220/2/3 221/2/3
f 228/2/3 224/2/3 223/2/3
f 229/2/3 224/2/3 228/2/3
f 230/2/3 226/2/3 225/2/3
f 231/2/3 226/2/3 230/2/3
f 232/2/3 228/2/3 227/2/3
f 233/2/3 228/2/3 232/2/3
f 234/2/4 235/2/4 236/2/4
f 236/2/4 235/2/4 237/2/4
f 238/2/4 239/2/4 240/2/4
f 240/2/4 239/2/4 241/2/4
f 242/2/4 243/2/4 246/2/4
f 246/2/4 243/2/4 247/2/4
f 244/2/4 245/2/4 248/2/4
f 248/2/4 245/2/4 249/2/4
f 250/2/4 251/2/4 255/2/4
f 255/2/4 251/2/4 256/2/4
f 252/3/4 253/3/4 257/3/4
f 257/3/4 253/3/4 258/3/4
f 254/2/4 255/2/4 259/2/4
f 259/2/4 255/2/4 260/2/4
f 261/2/4 262/2/4 263/2/4
f 263/2/4 262/2/4 264/2/4
f 263/3/4 264/3/4 267/3/4
f 267/3/4 264/3/4 268/3/4
f 265/2/4 266/2/4 269/2/4
f 269/2/4 266/2/4 270/2/4
f 270/3/4 271/3/4 274/3/4
f 274/3/4 271/3/4 275/3/4
f 272/2/4 273/2/4 276/2/4
f 276/2/4 273/2/4 277/2/4
f 278/2/4 279/2/4 281/2/4
f 281/2/4 279/2/4 282/2/4
f 280/2/4 281/2/4 285/2/4
f 285/2/4 281/2/4 286/2/4
f 282/2/4 283/2/4 287/2/4
f 287/2/4 283/2/4 288/2/4
f 284/1/4 285/1/4 291/1/4
f 291/1/4 285/1/4 292/1/4
f 292/2/4 293/2/4 294/2/4
f 294/2/4 293/2/4 295/2/4
f 289/2/4 290/2/4 296/2/4
f 296/2/4 290/2/4 297/2/4
f 295/2/4 296/2/4 298/2/4
f 298/2/4 296/2/4 299/2/4
f 300/2/4 301/2/4 303/2/4
f 303/2/4 301/2/4 304/2/4
f 302/2/4 303/2/4 304/2/4
f 302/2/4 304/2/4 306/2/4
f 304/2/4 305/2/4 306/2/4
f 306/2/4 305/2/4 307/2/4
f 302/2/4 306/2/4 308/2/4
f 308/2/4 306/2/4 309/2/4
f 309/2/4 306/2/4 310/2/4
f 310/2/4 306/2/4 311/2/4
f 315/1/5 313/1/5 312/1/5
f 316/1/5 313/1/5 315/1/5
f 319/2/5 315/2/5 314/2/5
f 320/1/5 316/1/5 315/1/5
f 320/2/5 315/2/5 319/2/5
f 321/2/5 317/2/5 316/2/5
f 321/1/5 316/1/5 320/1/5
f 322/2/5 317/2/5 321/2/5
f 324/2/5 319/2/5 318/2/5
f 325/1/5 320/1/5 319/1/5
f 325/2/5 319/2/5 324/2/5
f 325/1/5 321/1/5 320/1/5
f 325/1/5 322/1/5 321/1/5
f 326/1/5 322/1/5 325/1/5
f 327/1/5 322/1/5 326/1/5
f 328/2/5 323/2/5 322/2/5
f 328/1/5 322/1/5 327/1/5
f 329/2/5 323/2/5 328/2/5
f 330/2/5 326/2/5 325/2/5
f 331/1/5 327/1/5 326/1/5
f 331/2/5 326/2/5 330/2/5
f 332/2/5 328/2/5 327/2/5
f 332/1/5 327/1/5 331/1/5
f 333/2/5 328/2/5 332/2/5
f 334/1/5 332/1/5 331/1/5
f 335/1/5 332/1/5 334/1/5
f 341/2/5 337/2/5 336/2/5
f 342/2/5 337/2/5 341/2/5
f 343/2/5 339/2/5 338/2/5
f 344/2/5 339/2/5 343/2/5
f 346/2/5 341/2/5 340/2/5
f 347/2/5 341/2/5 346/2/5
f 348/2/5 345/2/5 344/2/5
f 349/2/5 345/2/5 348/2/5
f 354/2/5 351/2/5 350/2/5
f 355/2/5 351/2/5 354/2/5
f 358/3/5 353/3/5 352/3/5
f 359/3/5 353/3/5 358/3/5
f 360/2/5 356/2/5 355/2/5
f 361/2/5 356/2/5 360/2/5
f 362/2/5 358/2/5 357/2/5
f 363/2/5 358/2/5 362/2/5
f 364/2/5 362/2/5 361/2/5
f 365/2/5 362/2/5 364/2/5
f 370/2/5 367/2/5 366/2/5
f 371/2/5 367/2/5 370/2/5
f 374/2/5 369/2/5 368/2/5
f 375/2/5 369/2/5 374/2/5
f 376/2/5 372/2/5 371/2/5
f 377/2/5 372/2/5 376/2/5
f 378/2/5 374/2/5 373/2/5
f 379/2/5 374/2/5 378/2/5
f 380/2/6 381/2/6 385/2/6
f 385/2/6 381/2/6 386/2/6
f 382/3/6 383/3/6 387/3/6
f 387/3/6 383/3/6 388/3/6
f 384/2/6 385/2/6 390/2/6
f 390/2/6 385/2/6 391/2/6
f 388/2/6 389/2/6 392/2/6
f 392/2/6 389/2/6 393/2/6
f 390/3/6 391/3/6 394/3/6
f 394/3/6 391/3/6 395/3/6
f 392/3/6 393/3/6 396/3/6
f 396/3/6 393/3/6 397/3/6
f 398/2/6 399/2/6 402/2/6
f 402/2/6 399/2/6 403/2/6
f 400/2/6 401/2/6 406/2/6
f 406/2/6 401/2/6 407/2/6
f 403/2/6 404/2/6 408/2/6
f 408/2/6 404/2/6 409/2/6
f 405/2/6 406/2/6 410/2/6
f 410/2/6 406/2/6 411/2/6
f 412/2/6 413/2/6 416/2/6
f 416/2/6 413/2/6 417/2/6
f 413/3/6 414/3/6 418/3/6
f 417/2/6 413/2/6 418/2/6
f 418/3/6 414/3/6 419/3/6
f 416/2/6 417/2/6 421/2/6
f 415/2/6 416/2/6 421/2/6
f 421/2/6 417/2/6 422/2/6
f 418/2/6 419/2/6 423/2/6
f 419/3/6 420/3/6 424/3/6
f 423/2/6 419/2/6 424/2/6
f 424/3/6 420/3/6 425/3/6
f 415/2/6 421/2/6 427/2/6
f 427/2/6 421/2/6 428/2/6
f 424/2/6 425/2/6 429/2/6
f 429/2/6 425/2/6 430/2/6
f 426/2/6 427/2/6 432/2/6
f 432/2/6 427/2/6 433/2/6
f 430/2/6 431/2/6 436/2/6
f 432/3/6 433/3/6 437/3/6
f 433/2/6 434/2/6 438/2/6
f 437/3/6 433/3/6 438/3/6
f 438/2/6 434/2/6 439/2/6
f 435/2/6 436/2/6 441/2/6
f 436/2/6 431/2/6 442/2/6
f 441/2/6 436/2/6 442/2/6
f 442/2/6 431/2/6 443/2/6
f 439/2/6 440/2/6 444/2/6
f 440/2/6 441/2/6 444/2/6
f 441/2/6 442/2/6 444/2/6
f 438/2/6 439/2/6 444/2/6
f 444/2/6 442/2/6 445/2/6
f 445/2/6 442/2/6 446/2/6
f 446/2/6 442/2/6 447/2/6
f 445/2/6 446/2/6 448/2/6
f 448/2/6 446/2/6 449/2/6
f 450/2/6 451/2/6 453/2/6
f 453/2/6 451/2/6 454/2/6
f 452/2/6 453/2/6 457/2/6
f 454/2/6 455/2/6 457/2/6
f 453/2/6 454/2/6 457/2/6
f 457/2/6 455/2/6 458/2/6
f 458/2/6 455/2/6 459/2/6
f 457/3/6 458/3/6 461/3/6
f 459/2/6 460/2/6 461/2/6
f 458/2/6 459/2/6 461/2/6
f 461/2/6 460/2/6 462/2/6
f 456/2/6 457/2/6 463/2/6
f 457/3/6 461/3/6 464/3/6
f 463/2/6 457/2/6 464/2/6
f 461/3/6 462/3/6 464/3/6
f 464/3/6 462/3/6 465/3/6
f 462/2/6 460/2/6 466/2/6
f 465/3/6 462/3/6 466/3/6
f 466/2/6 460/2/6 467/2/6
f 464/2/6 465/2/6 468/2/6
f 465/3/6 466/3/6 469/3/6
f 468/2/6 465/2/6 469/2/6
f 469/3/6 466/3/6 470/3/6
